<svg xmlns="http://www.w3.org/2000/svg" width="1280" height="640" viewBox="0 0 1280 640">
<defs>
<linearGradient id="accentGradient" x1="0" y1="0" x2="1" y2="0">
<stop offset="0" stop-color="#22d3ee"/>
<stop offset="1" stop-color="#3b82f6"/>
</linearGradient>
</defs>

<!-- Terminal Window -->
<rect x="360" y="90" width="560" height="460" rx="40" ry="40" fill="#020617" stroke="#111827" stroke-width="6"/>

<!-- Title Bar -->
<rect x="360" y="90" width="560" height="80" rx="40" ry="40" fill="#020617" stroke="#0b1120" stroke-width="3"/>

<!-- Window Buttons -->
<circle cx="410" cy="130" r="10" fill="#ef4444"/>
<circle cx="445" cy="130" r="10" fill="#facc15"/>
<circle cx="480" cy="130" r="10" fill="#22c55e"/>

<!-- CONTENT AREA: perfectly centered with equal top and bottom padding -->

<g transform="translate(0, 80)">

<!-- Main Code -->
<path d="M430 260 L510 300 L430 340" fill="none" stroke="url(#accentGradient)" stroke-width="26" stroke-linecap="round" stroke-linejoin="round"/>
<path d="M550 340 H720" fill="none" stroke="url(#accentGradient)" stroke-width="26" stroke-linecap="round"/>

<!-- Secondary Code -->
<path d="M430 380 L500 415 L430 450" fill="none" stroke="#4b5563" stroke-width="20" stroke-linecap="round" stroke-linejoin="round"/>
<path d="M540 450 H715" fill="none" stroke="#4b5563" stroke-width="20" stroke-linecap="round"/>

<!-- UI elements right -->
<rect x="760" y="255" width="160" height="32" rx="16" ry="16" fill="#020617" stroke="#1f2937" stroke-width="3"/>
<rect x="760" y="300" width="130" height="26" rx="13" ry="13" fill="#020617" stroke="#1f2937" stroke-width="3"/>
<rect x="760" y="338" width="120" height="26" rx="13" ry="13" fill="#020617" stroke="#1f2937" stroke-width="3"/>
<rect x="760" y="376" width="150" height="26" rx="13" ry="13" fill="#020617" stroke="#1f2937" stroke-width="3"/>

<!-- Accent underline -->
<path d="M540 505 H720" fill="none" stroke="url(#accentGradient)" stroke-width="10" stroke-linecap="round"/>

<!-- FK Branding -->
<text x="640" y="555" text-anchor="middle" font-family="system-ui, sans-serif" font-size="96" font-weight="700" fill="#0ea5e9" fill-opacity="0.22" letter-spacing="14">FK</text>

</g>
</svg>
