<svg xmlns="http://www.w3.org/2000/svg" viewBox="0 0 512 512" role="img" aria-labelledby="title desc">
<title id="title">Florian Kutzer Script Repo Icon</title>
<desc id="desc">Hohes dunkles Fenster mit ausgewogenem oberen und vergrößertem unteren Abstand und dezentem FK-Monogramm.</desc>
<defs>
<linearGradient id="accentGradient" x1="0" y1="0" x2="1" y2="0">
<stop offset="0" stop-color="#22d3ee"/>
<stop offset="1" stop-color="#3b82f6"/>
</linearGradient>
</defs>

<!-- Hauptfenster — höher, transparenter Hintergrund -->
<rect x="96" y="70" width="320" height="340" rx="32" ry="32" fill="#020617" stroke="#111827" stroke-width="4"/>

<!-- Titelbar -->
<rect x="96" y="70" width="320" height="60" rx="32" ry="32" fill="#020617" stroke="#0b1120" stroke-width="2"/>

<!-- Fenster Buttons -->
<circle cx="132" cy="100" r="7" fill="#ef4444"/>
<circle cx="158" cy="100" r="7" fill="#facc15"/>
<circle cx="184" cy="100" r="7" fill="#22c55e"/>

<!-- Haupt-Code-Bereich nach oben verschoben -->
<path d="M150 200 L198 222 L150 244" fill="none" stroke="url(#accentGradient)" stroke-width="18" stroke-linecap="round" stroke-linejoin="round"/>
<path d="M220 244 H310" fill="none" stroke="url(#accentGradient)" stroke-width="18" stroke-linecap="round"/>

<!-- Sekundäre Code-Zeile -->
<path d="M150 268 L192 288 L150 308" fill="none" stroke="#4b5563" stroke-width="14" stroke-linecap="round" stroke-linejoin="round"/>
<path d="M216 308 H306" fill="none" stroke="#4b5563" stroke-width="14" stroke-linecap="round"/>

<!-- Rechte UI-Elemente (leicht hochgesetzt) -->
<rect x="314" y="194" width="86" height="22" rx="11" ry="11" fill="#020617" stroke="#1f2937" stroke-width="2"/>
<rect x="314" y="226" width="72" height="18" rx="9" ry="9" fill="#020617" stroke="#1f2937" stroke-width="2"/>
<rect x="314" y="254" width="64" height="18" rx="9" ry="9" fill="#020617" stroke="#1f2937" stroke-width="2"/>
<rect x="314" y="282" width="80" height="18" rx="9" ry="9" fill="#020617" stroke="#1f2937" stroke-width="2"/>

<!-- Unterer Akzent-Strich leicht weiter oben als FK, aber viel Platz nach unten -->
<path d="M206 330 H306" fill="none" stroke="url(#accentGradient)" stroke-width="6" stroke-linecap="round"/>

<!-- FK Branding — ganz unten, noch weiter abgesenkt -->
<text x="256" y="378" text-anchor="middle" font-family="system-ui, sans-serif" font-size="56" font-weight="700" fill="#0ea5e9" fill-opacity="0.22" letter-spacing="6">FK</text>

</svg>
