<svg xmlns="http://www.w3.org/2000/svg" viewBox="0 0 512 512" role="img" aria-labelledby="title desc">
<title id="title">Florian Kutzer Script Repo Icon</title>
<desc id="desc">Abgerundetes dunkles Quadrat mit Entwicklerterminal-Symbol und dezentem FK-Monogramm.</desc>
<defs>
<linearGradient id="bgGradient" x1="0" y1="0" x2="1" y2="1">
<stop offset="0" stop-color="#111827"/>
<stop offset="1" stop-color="#020617"/>
</linearGradient>
<linearGradient id="accentGradient" x1="0" y1="0" x2="1" y2="0">
<stop offset="0" stop-color="#22d3ee"/>
<stop offset="1" stop-color="#3b82f6"/>
</linearGradient>
</defs>
<rect x="32" y="32" width="448" height="448" rx="88" ry="88" fill="url(#bgGradient)"/>
<rect x="96" y="120" width="320" height="248" rx="28" ry="28" fill="#020617" stroke="#1f2937" stroke-width="4"/>
<rect x="96" y="120" width="320" height="52" rx="28" ry="28" fill="#020617" stroke="#111827" stroke-width="2"/>
<circle cx="132" cy="146" r="6" fill="#ef4444"/>
<circle cx="156" cy="146" r="6" fill="#facc15"/>
<circle cx="180" cy="146" r="6" fill="#22c55e"/>
<path d="M150 236 L194 256 L150 276" fill="none" stroke="url(#accentGradient)" stroke-width="18" stroke-linecap="round" stroke-linejoin="round"/>
<path d="M214 276 H302" fill="none" stroke="url(#accentGradient)" stroke-width="18" stroke-linecap="round"/>
<path d="M150 320 L194 340 L150 360" fill="none" stroke="#4b5563" stroke-width="14" stroke-linecap="round" stroke-linejoin="round"/>
<path d="M214 360 H302" fill="none" stroke="#4b5563" stroke-width="14" stroke-linecap="round"/>
<rect x="310" y="214" width="92" height="20" rx="10" ry="10" fill="#0f172a"/>
<rect x="310" y="246" width="72" height="16" rx="8" ry="8" fill="#0f172a"/>
<rect x="310" y="274" width="64" height="16" rx="8" ry="8" fill="#0f172a"/>
<rect x="310" y="302" width="80" height="16" rx="8" ry="8" fill="#0f172a"/>
<path d="M210 402 H310" fill="none" stroke="url(#accentGradient)" stroke-width="6" stroke-linecap="round"/>
<text x="256" y="444" text-anchor="middle" font-family="system-ui, -apple-system, BlinkMacSystemFont, 'Segoe UI', sans-serif" font-size="64" font-weight="700" fill="#0ea5e9" fill-opacity="0.22" letter-spacing="6">FK</text>
</svg>
